<?xml version="1.0" encoding="utf-8"?>
<!-- Generator: Adobe Illustrator 18.1.1, SVG Export Plug-In . SVG Version: 6.00 Build 0)  -->
<!DOCTYPE svg PUBLIC "-//W3C//DTD SVG 1.1//EN" "http://www.w3.org/Graphics/SVG/1.1/DTD/svg11.dtd">
<svg version="1.1" xmlns="http://www.w3.org/2000/svg" xmlns:xlink="http://www.w3.org/1999/xlink" x="0px" y="0px" width="16px"
	 height="16px" viewBox="-391 393 16 16" enable-background="new -391 393 16 16" xml:space="preserve">
<g id="Layer_2">
	<circle fill="#FFFFFF" cx="-383" cy="400.9" r="5.6"/>
</g>
<g id="Layer_1">
	<path d="M-383,409c-4.4,0-8-3.6-8-8s3.6-8,8-8s8,3.6,8,8S-378.6,409-383,409z M-383,395.3c-3.1,0-5.6,2.4-5.6,5.6
		c0,3.1,2.4,5.6,5.6,5.6s5.6-2.4,5.6-5.6C-377.4,397.9-380,395.3-383,395.3z"/>
	<path d="M-383,404.7c-2.1,0-3.8-1.7-3.8-3.8c0-2.1,1.7-3.8,3.8-3.8s3.8,1.7,3.8,3.8C-379.3,403-381,404.7-383,404.7z"/>
</g>
</svg>
